<svg xmlns="http://www.w3.org/2000/svg" xmlns:xlink="http://www.w3.org/1999/xlink" width="1080" zoomAndPan="magnify" viewBox="0 0 810 809.999993" height="1080" preserveAspectRatio="xMidYMid meet" version="1.0"><rect x="-81" width="972" fill="#ffffff" y="-80.999999" height="971.999992" fill-opacity="1"/><rect x="-81" width="972" fill="#c6ffba" y="-80.999999" height="971.999992" fill-opacity="1"/><rect x="-81" width="972" fill="#ffffff" y="-80.999999" height="971.999992" fill-opacity="1"/><rect x="-81" width="972" fill="#c6ffba" y="-80.999999" height="971.999992" fill-opacity="1"/><path fill="#bae6ff" d="M 444.691406 0 L 365.308594 0 L 405 405 Z M 444.691406 0 " fill-opacity="1" fill-rule="nonzero"/><path fill="#bae6ff" d="M 270.25 0 L 174.953125 0 L 405 405 Z M 270.25 0 " fill-opacity="1" fill-rule="nonzero"/><path fill="#bae6ff" d="M 35.144531 0 L 0 0 L 0 106.375 L 405 405 L 35.144531 0 " fill-opacity="1" fill-rule="nonzero"/><path fill="#bae6ff" d="M 0 228.085938 L 0 315.933594 L 405 405 Z M 0 228.085938 " fill-opacity="1" fill-rule="nonzero"/><path fill="#bae6ff" d="M 0 407.847656 L 0 488.113281 L 405 405 Z M 0 407.847656 " fill-opacity="1" fill-rule="nonzero"/><path fill="#bae6ff" d="M 0 588.742188 L 0 694.921875 L 405 405 Z M 0 588.742188 " fill-opacity="1" fill-rule="nonzero"/><path fill="#bae6ff" d="M 45.460938 810 L 167.359375 810 L 405 405 Z M 45.460938 810 " fill-opacity="1" fill-rule="nonzero"/><path fill="#bae6ff" d="M 276.550781 810 L 359.550781 810 L 405 405 Z M 276.550781 810 " fill-opacity="1" fill-rule="nonzero"/><path fill="#bae6ff" d="M 450.449219 810 L 533.449219 810 L 405 405 Z M 450.449219 810 " fill-opacity="1" fill-rule="nonzero"/><path fill="#bae6ff" d="M 642.640625 810 L 764.539062 810 L 405 405 Z M 642.640625 810 " fill-opacity="1" fill-rule="nonzero"/><path fill="#bae6ff" d="M 810 694.921875 L 810 588.742188 L 405 405 Z M 810 694.921875 " fill-opacity="1" fill-rule="nonzero"/><path fill="#bae6ff" d="M 810 488.113281 L 810 407.847656 L 405 405 Z M 810 488.113281 " fill-opacity="1" fill-rule="nonzero"/><path fill="#bae6ff" d="M 810 315.933594 L 810 228.085938 L 405 405 Z M 810 315.933594 " fill-opacity="1" fill-rule="nonzero"/><path fill="#bae6ff" d="M 810 106.375 L 810 0 L 774.855469 0 L 405 405 L 810 106.375 " fill-opacity="1" fill-rule="nonzero"/><path fill="#bae6ff" d="M 635.046875 0 L 539.75 0 L 405 405 Z M 635.046875 0 " fill-opacity="1" fill-rule="nonzero"/></svg>